name C:\Users\u0101727\Documents\MyRepositories\upper-imu-dc\OpenSim\subject0\MA\MA_Splines\angle_in_n6_dof6_2.mot
datacolumns 7
datarows 67
range 275.01000000 275.67000000
endheader 
time	clav_prot	clav_elev	scapula_abduction	scapula_elevation	scapula_upward_rot	scapula_winging	
        275.01000000	        -36.17913537	         16.86370047	        -27.66618321	         -4.83889401	         54.58874201	         -2.69349413	
        275.02000000	        -29.75473540	         16.86370047	        -27.66618321	         -4.83889401	         54.58874201	         -2.69349413	
        275.03000000	        -23.33033544	         16.86370047	        -27.66618321	         -4.83889401	         54.58874201	         -2.69349413	
        275.04000000	        -16.90593547	         16.86370047	        -27.66618321	         -4.83889401	         54.58874201	         -2.69349413	
        275.05000000	        -49.02793530	         -7.65248351	        -17.92766020	         -4.83889401	         54.58874201	         -2.69349413	
        275.06000000	        -42.60353533	         -7.65248351	        -17.92766020	         -4.83889401	         54.58874201	         -2.69349413	
        275.07000000	        -36.17913537	         -7.65248351	        -17.92766020	         -4.83889401	         54.58874201	         -2.69349413	
        275.08000000	        -29.75473540	         -7.65248351	        -17.92766020	         -4.83889401	         54.58874201	         -2.69349413	
        275.09000000	        -23.33033544	         -7.65248351	        -17.92766020	         -4.83889401	         54.58874201	         -2.69349413	
        275.10000000	        -16.90593547	         -7.65248351	        -17.92766020	         -4.83889401	         54.58874201	         -2.69349413	
        275.11000000	        -49.02793530	         -2.74924671	        -17.92766020	         -4.83889401	         54.58874201	         -2.69349413	
        275.12000000	        -42.60353533	         -2.74924671	        -17.92766020	         -4.83889401	         54.58874201	         -2.69349413	
        275.13000000	        -36.17913537	         -2.74924671	        -17.92766020	         -4.83889401	         54.58874201	         -2.69349413	
        275.14000000	        -29.75473540	         -2.74924671	        -17.92766020	         -4.83889401	         54.58874201	         -2.69349413	
        275.15000000	        -23.33033544	         -2.74924671	        -17.92766020	         -4.83889401	         54.58874201	         -2.69349413	
        275.16000000	        -16.90593547	         -2.74924671	        -17.92766020	         -4.83889401	         54.58874201	         -2.69349413	
        275.17000000	        -49.02793530	          2.15399008	        -17.92766020	         -4.83889401	         54.58874201	         -2.69349413	
        275.18000000	        -42.60353533	          2.15399008	        -17.92766020	         -4.83889401	         54.58874201	         -2.69349413	
        275.19000000	        -36.17913537	          2.15399008	        -17.92766020	         -4.83889401	         54.58874201	         -2.69349413	
        275.20000000	        -29.75473540	          2.15399008	        -17.92766020	         -4.83889401	         54.58874201	         -2.69349413	
        275.21000000	        -23.33033544	          2.15399008	        -17.92766020	         -4.83889401	         54.58874201	         -2.69349413	
        275.22000000	        -16.90593547	          2.15399008	        -17.92766020	         -4.83889401	         54.58874201	         -2.69349413	
        275.23000000	        -49.02793530	          7.05722688	        -17.92766020	         -4.83889401	         54.58874201	         -2.69349413	
        275.24000000	        -42.60353533	          7.05722688	        -17.92766020	         -4.83889401	         54.58874201	         -2.69349413	
        275.25000000	        -36.17913537	          7.05722688	        -17.92766020	         -4.83889401	         54.58874201	         -2.69349413	
        275.26000000	        -29.75473540	          7.05722688	        -17.92766020	         -4.83889401	         54.58874201	         -2.69349413	
        275.27000000	        -23.33033544	          7.05722688	        -17.92766020	         -4.83889401	         54.58874201	         -2.69349413	
        275.28000000	        -16.90593547	          7.05722688	        -17.92766020	         -4.83889401	         54.58874201	         -2.69349413	
        275.29000000	        -49.02793530	         11.96046367	        -17.92766020	         -4.83889401	         54.58874201	         -2.69349413	
        275.30000000	        -42.60353533	         11.96046367	        -17.92766020	         -4.83889401	         54.58874201	         -2.69349413	
        275.31000000	        -36.17913537	         11.96046367	        -17.92766020	         -4.83889401	         54.58874201	         -2.69349413	
        275.32000000	        -29.75473540	         11.96046367	        -17.92766020	         -4.83889401	         54.58874201	         -2.69349413	
        275.33000000	        -23.33033544	         11.96046367	        -17.92766020	         -4.83889401	         54.58874201	         -2.69349413	
        275.34000000	        -16.90593547	         11.96046367	        -17.92766020	         -4.83889401	         54.58874201	         -2.69349413	
        275.35000000	        -49.02793530	         16.86370047	        -17.92766020	         -4.83889401	         54.58874201	         -2.69349413	
        275.36000000	        -42.60353533	         16.86370047	        -17.92766020	         -4.83889401	         54.58874201	         -2.69349413	
        275.37000000	        -36.17913537	         16.86370047	        -17.92766020	         -4.83889401	         54.58874201	         -2.69349413	
        275.38000000	        -29.75473540	         16.86370047	        -17.92766020	         -4.83889401	         54.58874201	         -2.69349413	
        275.39000000	        -23.33033544	         16.86370047	        -17.92766020	         -4.83889401	         54.58874201	         -2.69349413	
        275.40000000	        -16.90593547	         16.86370047	        -17.92766020	         -4.83889401	         54.58874201	         -2.69349413	
        275.41000000	        -49.02793530	         -7.65248351	         -8.18913718	         -4.83889401	         54.58874201	         -2.69349413	
        275.42000000	        -42.60353533	         -7.65248351	         -8.18913718	         -4.83889401	         54.58874201	         -2.69349413	
        275.43000000	        -36.17913537	         -7.65248351	         -8.18913718	         -4.83889401	         54.58874201	         -2.69349413	
        275.44000000	        -29.75473540	         -7.65248351	         -8.18913718	         -4.83889401	         54.58874201	         -2.69349413	
        275.45000000	        -23.33033544	         -7.65248351	         -8.18913718	         -4.83889401	         54.58874201	         -2.69349413	
        275.46000000	        -16.90593547	         -7.65248351	         -8.18913718	         -4.83889401	         54.58874201	         -2.69349413	
        275.47000000	        -49.02793530	         -2.74924671	         -8.18913718	         -4.83889401	         54.58874201	         -2.69349413	
        275.48000000	        -42.60353533	         -2.74924671	         -8.18913718	         -4.83889401	         54.58874201	         -2.69349413	
        275.49000000	        -36.17913537	         -2.74924671	         -8.18913718	         -4.83889401	         54.58874201	         -2.69349413	
        275.50000000	        -29.75473540	         -2.74924671	         -8.18913718	         -4.83889401	         54.58874201	         -2.69349413	
        275.51000000	        -23.33033544	         -2.74924671	         -8.18913718	         -4.83889401	         54.58874201	         -2.69349413	
        275.52000000	        -16.90593547	         -2.74924671	         -8.18913718	         -4.83889401	         54.58874201	         -2.69349413	
        275.53000000	        -49.02793530	          2.15399008	         -8.18913718	         -4.83889401	         54.58874201	         -2.69349413	
        275.54000000	        -42.60353533	          2.15399008	         -8.18913718	         -4.83889401	         54.58874201	         -2.69349413	
        275.55000000	        -36.17913537	          2.15399008	         -8.18913718	         -4.83889401	         54.58874201	         -2.69349413	
        275.56000000	        -29.75473540	          2.15399008	         -8.18913718	         -4.83889401	         54.58874201	         -2.69349413	
        275.57000000	        -23.33033544	          2.15399008	         -8.18913718	         -4.83889401	         54.58874201	         -2.69349413	
        275.58000000	        -16.90593547	          2.15399008	         -8.18913718	         -4.83889401	         54.58874201	         -2.69349413	
        275.59000000	        -49.02793530	          7.05722688	         -8.18913718	         -4.83889401	         54.58874201	         -2.69349413	
        275.60000000	        -42.60353533	          7.05722688	         -8.18913718	         -4.83889401	         54.58874201	         -2.69349413	
        275.61000000	        -36.17913537	          7.05722688	         -8.18913718	         -4.83889401	         54.58874201	         -2.69349413	
        275.62000000	        -29.75473540	          7.05722688	         -8.18913718	         -4.83889401	         54.58874201	         -2.69349413	
        275.63000000	        -23.33033544	          7.05722688	         -8.18913718	         -4.83889401	         54.58874201	         -2.69349413	
        275.64000000	        -16.90593547	          7.05722688	         -8.18913718	         -4.83889401	         54.58874201	         -2.69349413	
        275.65000000	        -49.02793530	         11.96046367	         -8.18913718	         -4.83889401	         54.58874201	         -2.69349413	
        275.66000000	        -42.60353533	         11.96046367	         -8.18913718	         -4.83889401	         54.58874201	         -2.69349413	
        275.67000000	        -36.17913537	         11.96046367	         -8.18913718	         -4.83889401	         54.58874201	         -2.69349413	
